<svg width="20" height="21" viewBox="0 0 20 21" fill="none" xmlns="http://www.w3.org/2000/svg">
<path d="M2.5 15.9282V10.9059C2.5 8.90796 3.29018 6.99181 4.6967 5.57903C6.10322 4.16625 8.01088 3.37256 10 3.37256C11.9891 3.37256 13.8968 4.16625 15.3033 5.57903C16.7098 6.99181 17.5 8.90796 17.5 10.9059V15.9282" stroke="#FDFBFB" stroke-width="2" stroke-linecap="round" stroke-linejoin="round"/>
<path d="M17.5 16.7653C17.5 17.2093 17.3244 17.6351 17.0118 17.949C16.6993 18.263 16.2754 18.4394 15.8333 18.4394H15C14.558 18.4394 14.134 18.263 13.8215 17.949C13.5089 17.6351 13.3333 17.2093 13.3333 16.7653V14.2542C13.3333 13.8102 13.5089 13.3844 13.8215 13.0704C14.134 12.7565 14.558 12.5801 15 12.5801H17.5V16.7653ZM2.5 16.7653C2.5 17.2093 2.67559 17.6351 2.98816 17.949C3.30072 18.263 3.72464 18.4394 4.16667 18.4394H5C5.44203 18.4394 5.86595 18.263 6.17851 17.949C6.49107 17.6351 6.66667 17.2093 6.66667 16.7653V14.2542C6.66667 13.8102 6.49107 13.3844 6.17851 13.0704C5.86595 12.7565 5.44203 12.5801 5 12.5801H2.5V16.7653Z" stroke="#FDFBFB" stroke-width="2" stroke-linecap="round" stroke-linejoin="round"/>
</svg>
