<svg width="20" height="21" viewBox="0 0 20 21" fill="none" xmlns="http://www.w3.org/2000/svg">
<g clip-path="url(#clip0)">
<path d="M17.5 9.05827C17.5 14.9176 10 19.9398 10 19.9398C10 19.9398 2.5 14.9176 2.5 9.05827C2.5 7.0603 3.29018 5.14416 4.6967 3.73138C6.10322 2.31859 8.01088 1.5249 10 1.5249C11.9891 1.5249 13.8968 2.31859 15.3033 3.73138C16.7098 5.14416 17.5 7.0603 17.5 9.05827Z" stroke="#FDFBFB" stroke-width="2" stroke-linecap="round" stroke-linejoin="round"/>
<path d="M10 11.573C11.3807 11.573 12.5 10.4488 12.5 9.06191C12.5 7.67505 11.3807 6.55078 10 6.55078C8.61929 6.55078 7.5 7.67505 7.5 9.06191C7.5 10.4488 8.61929 11.573 10 11.573Z" stroke="#FDFBFB" stroke-width="2" stroke-linecap="round" stroke-linejoin="round"/>
</g>
<defs>
<clipPath id="clip0">
<rect width="20" height="20.089" fill="white" transform="translate(0 0.691406)"/>
</clipPath>
</defs>
</svg>
