<svg width="20" height="20" viewBox="0 0 20 20" fill="none" xmlns="http://www.w3.org/2000/svg">
<path d="M19.8354 15.3141L14.5202 9.99946L19.8337 4.68541C19.8861 4.63307 19.9276 4.57093 19.9559 4.50255C19.9842 4.43416 19.9988 4.36086 19.9988 4.28683C19.9988 4.21281 19.9842 4.13951 19.9559 4.07112C19.9276 4.00273 19.8861 3.94059 19.8337 3.88825L16.1114 0.165133C16.0057 0.0593989 15.8623 0 15.7127 0C15.5632 0 15.4198 0.0593989 15.314 0.165133L9.99967 5.47918L4.6862 0.165133C4.47479 -0.046556 4.10044 -0.046556 3.88875 0.165133L0.165632 3.88768C0.0600365 3.99351 0.000733208 4.13691 0.000733208 4.28641C0.000733208 4.43591 0.0600365 4.5793 0.165632 4.68513L5.47996 9.99946L0.164782 15.3144C0.0592554 15.4202 0 15.5636 0 15.7131C0 15.8626 0.0592554 16.0059 0.164782 16.1118L3.88733 19.8346C3.93966 19.8871 4.00181 19.9286 4.07023 19.957C4.13865 19.9854 4.21199 20 4.28606 20C4.36012 20 4.43347 19.9854 4.50188 19.957C4.5703 19.9286 4.63245 19.8871 4.68478 19.8346L9.99967 14.5197L15.3148 19.8343C15.4251 19.9443 15.5688 19.9996 15.7136 19.9996C15.8584 19.9996 16.0023 19.9443 16.1126 19.8343L19.8357 16.1115C19.9414 16.0057 20.0007 15.8623 20.0007 15.7127C20.0006 15.5632 19.9412 15.4198 19.8354 15.3141Z" fill="#848484"/>
</svg>
