<svg width="84" height="84" viewBox="0 0 84 84" fill="none" xmlns="http://www.w3.org/2000/svg">
<g clip-path="url(#clip0)">
<path d="M29.6801 45.0305L27.5856 45.0245C26.6854 47.8151 25.6262 51.836 24.8311 56.925H29.6711C31.3274 56.925 32.6717 55.5807 32.6717 53.9244V48.0312C32.6717 46.3778 31.3334 45.0365 29.6801 45.0305Z" fill="#F2F2F2"/>
<path d="M68.9309 24.0621L62.9297 30.0634H68.9309L74.9322 24.0621H68.9309Z" fill="#F2F2F2"/>
<path d="M80.9999 24.0621H80.9339L74.9326 30.0634H80.9999L84.0005 26.9967L80.9999 24.0621Z" fill="#F2F2F2"/>
<path d="M56.995 24.0621V23.9961L50.9938 17.9949H47.9932V35.9986H50.9938L62.9303 24.0621H56.995Z" fill="#F2F2F2"/>
<path d="M38.9906 11.9937H15.5377C8.72033 11.9937 2.32301 16.2695 0.555641 22.8559C-1.38276 30.0934 1.94493 36.7218 7.51709 39.9295C8.92438 40.7396 9.55451 42.417 8.83736 43.8753C6.68291 48.2502 3.92834 55.4907 2.99215 65.2577C2.64707 68.8555 5.39865 72.0061 9.0174 72.0061H20.3417C22.7422 72.0061 24.9597 70.2748 25.1547 67.8803C25.2688 66.488 24.7467 65.2187 23.8525 64.3215L23.2463 63.7154C21.9111 62.3801 21.2989 60.4927 21.545 58.6203C22.5712 50.7947 24.2816 45.1655 25.4458 41.9999H38.9906C42.3063 41.9999 44.9919 39.3143 44.9919 35.9986V17.9949C44.9919 14.6792 42.3063 11.9937 38.9906 11.9937Z" fill="#F2F2F2"/>
</g>
<defs>
<clipPath id="clip0">
<rect width="84" height="84" fill="white"/>
</clipPath>
</defs>
</svg>
