<svg width="70" height="60" viewBox="0 0 70 60" fill="none" xmlns="http://www.w3.org/2000/svg">
<path d="M23.4607 46.6558L28.7849 41.319C29.0366 41.0901 29.2392 40.8124 29.3803 40.5029C29.5215 40.1934 29.5983 39.8584 29.606 39.5182C29.6138 39.1781 29.5524 38.84 29.4255 38.5243C29.2986 38.2086 29.109 37.922 28.868 37.6819C28.627 37.4418 28.3397 37.2531 28.0236 37.1273C27.7075 37.0016 27.3691 36.9414 27.029 36.9503C26.689 36.9593 26.3542 37.0373 26.0452 37.1795C25.7361 37.3218 25.4592 37.5253 25.2312 37.7778L19.907 43.1021C19.6735 43.3353 19.4882 43.6123 19.3618 43.9172C19.2355 44.2221 19.1704 44.5489 19.1704 44.8789C19.1704 45.209 19.2355 45.5358 19.3618 45.8407C19.4882 46.1455 19.6735 46.4225 19.907 46.6558C20.3874 47.1094 21.0231 47.3621 21.6838 47.3621C22.3446 47.3621 22.9803 47.1094 23.4607 46.6558Z" fill="#F2F2F2"/>
<path d="M28.7844 51.98L34.1087 46.6558C34.459 46.3041 34.6976 45.8566 34.7944 45.3697C34.8911 44.8828 34.8418 44.3782 34.6526 43.9192C34.4634 43.4603 34.1427 43.0675 33.7309 42.7903C33.3191 42.5131 32.8345 42.3638 32.3381 42.3612C31.6696 42.3652 31.0294 42.6312 30.555 43.1021L25.2307 48.4263C24.9972 48.6596 24.812 48.9366 24.6856 49.2414C24.5592 49.5463 24.4941 49.8731 24.4941 50.2032C24.4941 50.5332 24.5592 50.86 24.6856 51.1649C24.812 51.4698 24.9972 51.7468 25.2307 51.98C25.7097 52.4365 26.3459 52.6911 27.0076 52.6911C27.6692 52.6911 28.3054 52.4365 28.7844 51.98Z" fill="#F2F2F2"/>
<path d="M34.1076 57.3043L37.6612 53.7506C38.0104 53.3995 38.2479 52.9529 38.3439 52.4671C38.4399 51.9813 38.3902 51.478 38.201 51.0204C38.0118 50.5628 37.6915 50.1713 37.2804 49.8952C36.8694 49.6191 36.3859 49.4707 35.8907 49.4686C35.5592 49.4676 35.2308 49.5326 34.9246 49.6598C34.6185 49.787 34.3407 49.9739 34.1076 50.2095L30.5539 53.7506C30.0826 54.2219 29.8179 54.861 29.8179 55.5275C29.8179 56.1939 30.0826 56.8331 30.5539 57.3043C31.0251 57.7756 31.6643 58.0403 32.3307 58.0403C32.9972 58.0403 33.6363 57.7756 34.1076 57.3043Z" fill="#F2F2F2"/>
<path d="M54.5384 42.2106L57.2005 44.8727C57.6718 45.3439 58.3109 45.6087 58.9774 45.6087C59.6438 45.6087 60.283 45.3439 60.7542 44.8727C61.2255 44.4014 61.4902 43.7623 61.4902 43.0958C61.4902 42.4294 61.2255 41.7902 60.7542 41.319L42.1068 22.6716C40.9258 21.5012 39.3304 20.8446 37.6678 20.8446C36.0052 20.8446 34.4098 21.5012 33.2288 22.6716L30.5542 25.3462C29.5986 26.2589 28.3281 26.7682 27.0068 26.7682C25.6854 26.7682 24.4149 26.2589 23.4593 25.3462C22.5186 24.4028 21.9904 23.1249 21.9904 21.7926C21.9904 20.4602 22.5186 19.1823 23.4593 18.2389L29.9765 11.7217C30.178 11.5318 30.3919 11.3556 30.6169 11.1943L27.892 8.46936L8.35303 28.0084L14.5814 34.2242L18.1351 30.6705C19.0906 29.7578 20.3611 29.2485 21.6825 29.2485C23.0039 29.2485 24.2744 29.7578 25.2299 30.6705C25.7349 31.1784 26.1252 31.7887 26.3743 32.4602C26.6234 33.1317 26.7256 33.8488 26.674 34.5632C27.3858 34.5064 28.1015 34.605 28.7715 34.8522C29.4415 35.0994 30.0498 35.4892 30.5542 35.9947C31.0584 36.5032 31.4482 37.1135 31.6972 37.7849C31.9463 38.4563 32.0489 39.1732 31.9982 39.8875C32.8784 39.8191 33.761 39.9861 34.5553 40.3716C35.3496 40.757 36.0269 41.347 36.5178 42.0808C37.0087 42.8146 37.2955 43.6658 37.3486 44.5471C37.4018 45.4283 37.2194 46.3078 36.8202 47.0953C37.8113 47.258 38.7279 47.7229 39.4447 48.4264C40.3854 49.3698 40.9136 50.6478 40.9136 51.9801C40.9136 53.3124 40.3854 54.5903 39.4447 55.5338L37.6615 57.3043L39.4447 59.0874C39.6735 59.3391 39.9512 59.5417 40.2607 59.6829C40.5703 59.824 40.9053 59.9008 41.2454 59.9086C41.5855 59.9163 41.9237 59.8549 42.2393 59.728C42.555 59.6012 42.8416 59.4115 43.0817 59.1705C43.3218 58.9295 43.5105 58.6422 43.6363 58.3261C43.762 58.01 43.8223 57.6716 43.8133 57.3316C43.8043 56.9915 43.7263 56.6568 43.5841 56.3477C43.4418 56.0387 43.2383 55.7617 42.9858 55.5338L42.1068 54.6422C41.8729 54.4069 41.7416 54.0886 41.7416 53.7569C41.7416 53.4252 41.8729 53.1069 42.1068 52.8716C42.2638 52.7083 42.4642 52.5932 42.6844 52.5398C42.9047 52.4864 43.1355 52.497 43.3499 52.5703C43.5481 52.6252 43.7294 52.7288 43.8773 52.8716L46.5395 55.5338C47.0107 56.005 47.6499 56.2697 48.3163 56.2697C48.9828 56.2697 49.6219 56.005 50.0932 55.5338C50.5644 55.0625 50.8292 54.4234 50.8292 53.7569C50.8292 53.0905 50.5644 52.4513 50.0932 51.9801L47.431 49.3179C47.1958 49.0808 47.0638 48.7604 47.0638 48.4264C47.0638 48.0924 47.1958 47.7719 47.431 47.5348C47.6663 47.3009 47.9846 47.1697 48.3163 47.1697C48.6481 47.1697 48.9663 47.3009 49.2016 47.5348L51.8763 50.2095C52.1052 50.4612 52.3828 50.6638 52.6924 50.8049C53.0019 50.9461 53.3369 51.0229 53.677 51.0306C54.0171 51.0384 54.3553 50.977 54.6709 50.8501C54.9866 50.7232 55.2732 50.5335 55.5133 50.2925C55.7535 50.0516 55.9422 49.7643 56.0679 49.4482C56.1937 49.1321 56.2539 48.7937 56.2449 48.4536C56.2359 48.1135 56.158 47.7788 56.0157 47.4698C55.8735 47.1607 55.6699 46.8838 55.4174 46.6558L52.7553 43.9937C52.5188 43.7572 52.386 43.4365 52.386 43.1021C52.386 42.7677 52.5188 42.447 52.7553 42.2106C52.9917 41.9741 53.3125 41.8413 53.6469 41.8413C53.9813 41.8413 54.302 41.9741 54.5384 42.2106Z" fill="#F2F2F2"/>
<path d="M66.0794 28.8873L69.6331 25.3462C69.8684 25.1091 70.0004 24.7886 70.0004 24.4546C70.0004 24.1206 69.8684 23.8002 69.6331 23.5631L48.3235 2.25351C48.0855 2.02006 47.7654 1.88928 47.432 1.88928C47.0986 1.88928 46.7785 2.02006 46.5404 2.25351L42.9867 5.8072C42.7529 6.04247 42.6216 6.36074 42.6216 6.69248C42.6216 7.02422 42.7529 7.34249 42.9867 7.57776L64.3089 28.8873C64.5463 29.117 64.8638 29.2454 65.1941 29.2454C65.5245 29.2454 65.842 29.117 66.0794 28.8873Z" fill="#F2F2F2"/>
<path d="M18.1363 41.319L23.4605 35.9948C23.6939 35.7614 23.879 35.4844 24.0053 35.1795C24.1315 34.8747 24.1965 34.5479 24.1965 34.2179C24.1965 33.8879 24.1315 33.5612 24.0053 33.2563C23.879 32.9514 23.6939 32.6744 23.4605 32.4411C23.2272 32.2077 22.9502 32.0226 22.6453 31.8964C22.3404 31.7701 22.0137 31.7051 21.6837 31.7051C21.3537 31.7051 21.0269 31.7701 20.7221 31.8964C20.4172 32.0226 20.1402 32.2077 19.9069 32.4411L14.5826 37.7779C14.3498 38.0102 14.1651 38.2862 14.039 38.59C13.913 38.8938 13.8481 39.2195 13.8481 39.5484C13.8481 39.8774 13.913 40.2031 14.039 40.5069C14.1651 40.8107 14.3498 41.0867 14.5826 41.319C15.0601 41.7784 15.6969 42.0349 16.3594 42.0349C17.022 42.0349 17.6588 41.7784 18.1363 41.319Z" fill="#F2F2F2"/>
<path d="M41.7937 10.5538C41.2122 11.1367 40.5213 11.5987 39.7605 11.9134C38.9997 12.228 38.1842 12.389 37.361 12.3872H34.4226C34.0121 12.3949 33.6053 12.4669 33.2171 12.6006C33.1362 12.6374 33.0521 12.6669 32.9659 12.6885C32.5087 12.8692 32.0939 13.1429 31.7479 13.4922L25.2307 20.0094C24.9972 20.2426 24.812 20.5196 24.6856 20.8245C24.5592 21.1294 24.4941 21.4562 24.4941 21.7862C24.4941 22.1163 24.5592 22.4431 24.6856 22.748C24.812 23.0528 24.9972 23.3298 25.2307 23.5631C25.7082 24.0224 26.345 24.279 27.0076 24.279C27.6701 24.279 28.3069 24.0224 28.7844 23.5631L31.4465 20.9009C33.0961 19.2545 35.3316 18.3297 37.6623 18.3297C39.993 18.3297 42.2285 19.2545 43.8782 20.9009L57.1888 34.2116L61.5964 29.7412L42.1076 10.2524L41.7937 10.5538Z" fill="#F2F2F2"/>
<path d="M27.0136 4.03666L23.4474 0.470418C23.3329 0.35367 23.1961 0.261236 23.045 0.198661C22.894 0.136086 22.7318 0.104657 22.5684 0.106259C22.405 0.105859 22.2433 0.137835 22.0924 0.200341C21.9415 0.262847 21.8045 0.354642 21.6894 0.470418L0.367222 21.7925C0.250892 21.9075 0.158532 22.0443 0.0954955 22.1952C0.0324589 22.3461 0 22.508 0 22.6715C0 22.8351 0.0324589 22.997 0.0954955 23.1479C0.158532 23.2988 0.250892 23.4356 0.367222 23.5506L3.93347 27.1294C4.17147 27.3531 4.48582 27.4776 4.81247 27.4776C5.13912 27.4776 5.45348 27.3531 5.69148 27.1294L26.9885 5.80723C27.001 5.79467 27.0136 5.79467 27.0262 5.78211C27.1402 5.66684 27.2304 5.53018 27.2915 5.37996C27.3527 5.22975 27.3835 5.06895 27.3824 4.90678C27.3812 4.74461 27.348 4.58427 27.2847 4.43495C27.2215 4.28564 27.1293 4.15028 27.0136 4.03666Z" fill="#F2F2F2"/>
</svg>
