<svg width="89" height="61" viewBox="0 0 89 61" fill="none" xmlns="http://www.w3.org/2000/svg">
<path d="M65.6586 14.0447H6.6998C2.99972 14.0447 0 17.0442 0 20.7443V54.0521C0 57.7524 2.99952 60.7519 6.6998 60.7519H65.659C69.3588 60.7519 72.3586 57.7526 72.3586 54.0521V20.7443C72.3586 17.0442 69.3587 14.0447 65.6586 14.0447ZM10.7 28.2065C10.7 25.9472 12.5314 24.1156 14.7909 24.1156H18.7059C20.9652 24.1156 22.7968 25.947 22.7968 28.2065V32.1215C22.7968 34.3807 20.9654 36.2124 18.7059 36.2124H14.7909C12.5316 36.2124 10.7 34.3809 10.7 32.1215V28.2065ZM30.8823 49.9584C30.8823 50.5909 30.3696 51.1034 29.7373 51.1034H12.0816C11.4493 51.1034 10.9363 50.5907 10.9363 49.9584V46.4749C10.9363 45.8426 11.4493 45.3298 12.0816 45.3298H29.7375C30.3698 45.3298 30.8825 45.8426 30.8825 46.4749L30.8823 49.9584ZM61.4219 49.9584C61.4219 50.5909 60.9089 51.1034 60.2764 51.1034H42.6209C41.9886 51.1034 41.4756 50.5907 41.4756 49.9584V46.4749C41.4756 45.8426 41.9886 45.3298 42.6209 45.3298H60.2764C60.9087 45.3298 61.4219 45.8426 61.4219 46.4749V49.9584Z" fill="#F2F2F2"/>
<path d="M81.9945 0H23.0357C19.3357 0 16.3359 2.99951 16.3359 6.6998V8.5098H65.6596C72.4053 8.5098 77.894 13.9983 77.894 20.7443V25.9248H88.6945V6.6998C88.6945 2.99951 85.6946 0 81.9945 0Z" fill="#F2F2F2"/>
<path d="M77.8936 46.7076H81.9941C85.6942 46.7076 88.6941 43.7081 88.6941 40.0076V32.5674H77.8936V46.7076Z" fill="#F2F2F2"/>
</svg>
