<svg width="61" height="61" viewBox="0 0 61 61" fill="none" xmlns="http://www.w3.org/2000/svg">
<g clip-path="url(#clip0)">
<path d="M56.662 44.7931H33.0106L18.7412 59.0624H32.8798V54.2679H35.258V59.0624H40.0144V54.2679H42.3927V59.0624H47.1491V54.2679H49.5273V59.0624H56.662C57.9748 59.0624 59.0402 57.997 59.0402 56.6842V47.1713C59.0402 45.8585 57.9748 44.7931 56.662 44.7931Z" fill="#F2F2F2"/>
<path d="M28.1234 1.98511V6.70351H25.7451V1.98511H20.9887V6.70351H18.6105V1.98511H13.854V6.70351H11.4758V1.98511H4.34112C3.02834 1.98511 1.96289 3.05055 1.96289 4.36333V13.8762C1.96289 15.189 3.02834 16.2545 4.34112 16.2545H27.9165L42.1858 1.98511H28.1234Z" fill="#F2F2F2"/>
<path d="M60.3053 7.42475L53.5796 0.699124C52.6497 -0.230763 51.1443 -0.230763 50.2168 0.699124L0.697415 50.2138C-0.232472 51.1437 -0.232472 52.6491 0.697415 53.5766L7.42304 60.3022C8.35292 61.2321 9.85834 61.2321 10.7858 60.3022L25.4571 45.6309L22.08 42.2539L23.7614 40.5725L27.1385 43.9495L30.5013 40.5867L27.1243 37.2096L28.8057 35.5282L32.1827 38.9053L35.5456 35.5425L32.1685 32.1654L33.8499 30.484L37.227 33.8611L40.5898 30.4983L37.2127 27.1212L38.8941 25.4398L42.2712 28.8169L45.634 25.4541L42.2569 22.077L43.9383 20.3956L47.3154 23.7727L60.2981 10.7899C61.2328 9.85767 61.2328 8.35225 60.3053 7.42475ZM9.09731 54.2687C7.78453 54.2687 6.71908 53.2032 6.71908 51.8904C6.71908 50.5776 7.78453 49.5122 9.09731 49.5122C10.4101 49.5122 11.4755 50.5776 11.4755 51.8904C11.4755 53.2056 10.4101 54.2687 9.09731 54.2687ZM51.9054 11.4986C50.5926 11.4986 49.5271 10.4332 49.5271 9.12042C49.5271 7.80764 50.5926 6.74219 51.9054 6.74219C53.2182 6.74219 54.2836 7.80764 54.2836 9.12042C54.2836 10.4332 53.2182 11.4986 51.9054 11.4986Z" fill="#F2F2F2"/>
</g>
<defs>
<clipPath id="clip0">
<rect width="61" height="61" fill="white"/>
</clipPath>
</defs>
</svg>
